<svg id="visual" viewBox="0 0 900 600" width="900" height="600" xmlns="http://www.w3.org/2000/svg" xmlns:xlink="http://www.w3.org/1999/xlink" version="1.1"><g transform="translate(463.0280185991943 323.8010441365823)"><path d="M138.9 -219.8C169.7 -196.4 177.2 -140.3 191 -92.4C204.9 -44.5 225.2 -4.6 225.8 36.7C226.4 77.9 207.3 120.5 175.3 145C143.3 169.5 98.4 175.9 57.6 181C16.7 186.1 -20.1 190 -54.2 181.4C-88.3 172.9 -119.7 151.9 -156.3 126.2C-192.8 100.6 -234.5 70.1 -247.4 30.9C-260.2 -8.3 -244.3 -56.3 -215.1 -89.2C-186 -122.1 -143.7 -139.9 -105.6 -160C-67.6 -180.2 -33.8 -202.6 10.1 -218.4C54.1 -234.1 108.1 -243.3 138.9 -219.8" fill="#F7770F"></path></g></svg>